<?xml version="1.0" encoding="UTF-8" standalone="no"?>
<!-- Created with Inkscape (http://www.inkscape.org/) -->

<svg
   xmlns:dc="http://purl.org/dc/elements/1.1/"
   xmlns:cc="http://creativecommons.org/ns#"
   xmlns:rdf="http://www.w3.org/1999/02/22-rdf-syntax-ns#"
   xmlns:svg="http://www.w3.org/2000/svg"
   xmlns="http://www.w3.org/2000/svg"
   xmlns:sodipodi="http://sodipodi.sourceforge.net/DTD/sodipodi-0.dtd"
   xmlns:inkscape="http://www.inkscape.org/namespaces/inkscape"
   width="210mm"
   height="297mm"
   viewBox="0 0 210 297"
   version="1.1"
   id="svg8"
   inkscape:version="0.92.3 (2405546, 2018-03-11)"
   sodipodi:docname="goodthing.svg">
  <defs
     id="defs2">
    <inkscape:path-effect
       effect="bspline"
       id="path-effect18"
       is_visible="true"
       weight="33.333333"
       steps="2"
       helper_size="0"
       apply_no_weight="true"
       apply_with_weight="true"
       only_selected="false" />
  </defs>
  <sodipodi:namedview
     id="base"
     pagecolor="#ffffff"
     bordercolor="#666666"
     borderopacity="1.0"
     inkscape:pageopacity="0.0"
     inkscape:pageshadow="2"
     inkscape:zoom="0.35"
     inkscape:cx="400"
     inkscape:cy="674.28571"
     inkscape:document-units="mm"
     inkscape:current-layer="layer1"
     showgrid="false"
     inkscape:window-width="1440"
     inkscape:window-height="837"
     inkscape:window-x="-8"
     inkscape:window-y="-8"
     inkscape:window-maximized="1" />
  <metadata
     id="metadata5">
    <rdf:RDF>
      <cc:Work
         rdf:about="">
        <dc:format>image/svg+xml</dc:format>
        <dc:type
           rdf:resource="http://purl.org/dc/dcmitype/StillImage" />
        <dc:title />
      </cc:Work>
    </rdf:RDF>
  </metadata>
  <g
     inkscape:label="Layer 1"
     inkscape:groupmode="layer"
     id="layer1">
    <ellipse
       style="fill:#808080;stroke-width:0.26458332"
       id="path10"
       cx="104.69941"
       cy="44.889877"
       rx="78.997025"
       ry="10.961308" />
    <path
       style="fill:none;stroke:#000000;stroke-width:0.26458332px;stroke-linecap:butt;stroke-linejoin:miter;stroke-opacity:1"
       d="m 27.214285,46.02381 v 6.047618 0 217.714272"
       id="path12"
       inkscape:connector-curvature="0" />
    <path
       style="fill:none;stroke:#000000;stroke-width:0.26458332px;stroke-linecap:butt;stroke-linejoin:miter;stroke-opacity:1"
       d="M 182.94047,46.02381 V 276.58927"
       id="path14"
       inkscape:connector-curvature="0" />
    <path
       style="fill:none;stroke:#000000;stroke-width:0.26458332px;stroke-linecap:butt;stroke-linejoin:miter;stroke-opacity:1"
       d="m 27.214285,269.7857 c 17.639076,4.53576 35.277961,9.07148 53.168773,11.84329 17.890812,2.7718 36.033852,3.77975 53.168692,2.64581 17.13484,-1.13395 33.26204,-4.40979 49.38872,-7.68553"
       id="path16"
       inkscape:connector-curvature="0"
       inkscape:path-effect="#path-effect18"
       inkscape:original-d="m 27.214285,269.7857 c 17.639154,4.53546 35.278043,9.07116 52.916666,13.60715 18.142934,1.00767 36.285979,2.01562 54.428569,3.02382 16.12703,-3.27602 32.25423,-6.55188 48.38095,-9.8274" />
    <ellipse
       style="fill:#000000;stroke-width:0.27022284"
       id="path3728"
       cx="51.404762"
       cy="166.22023"
       rx="17.386904"
       ry="18.898809" />
    <ellipse
       style="fill:#808080;stroke-width:0.26458332"
       id="path3730"
       cx="86.178574"
       cy="134.47023"
       rx="16.630953"
       ry="17.386906" />
    <ellipse
       style="fill:#808080;stroke-width:0.23431893"
       id="path3732"
       cx="130.40178"
       cy="135.22618"
       rx="17.008928"
       ry="18.142859" />
    <ellipse
       style="fill:#808080;stroke-width:0.38248873"
       id="path3734"
       cx="161.39583"
       cy="170.37796"
       rx="17.764879"
       ry="18.520832" />
    <ellipse
       style="fill:#808080;stroke-width:0.27966061"
       id="path3736"
       cx="106.96725"
       cy="200.61607"
       rx="41.955357"
       ry="42.711308" />
    <path
       style="fill:#000000;stroke-width:2.85714293"
       d="M 301.42857,567.17854 C 241.45223,536.04922 259.55884,444.831 325.71429,444.831 c 46.651,0 76.00828,51.48704 53.58304,93.9744 -5.97164,11.31401 -21.58685,26.03979 -31.62619,29.82476 -11.77692,4.44007 -36.37911,3.66777 -46.24257,-1.45162 z"
       id="path3738"
       inkscape:connector-curvature="0"
       transform="scale(0.26458333)" />
    <path
       style="fill:#000000;stroke-width:2.85714293"
       d="m 467.02466,572.00636 c -21.96408,-9.97689 -36.10398,-33.41871 -36.35348,-60.26854 -0.18865,-20.30057 7.77845,-38.35851 22.95456,-52.028 24.02379,-21.63881 54.43902,-21.63881 78.46281,0 45.3905,40.88434 19.80492,117.54151 -39.23141,117.54151 -7.85714,0 -19.48176,-2.36024 -25.83248,-5.24497 z"
       id="path3740"
       inkscape:connector-curvature="0"
       transform="scale(0.26458333)" />
    <path
       style="fill:#000000;stroke-width:2.85714293"
       d="m 577.28253,702.37683 c -45.24824,-27.42246 -43.09972,-95.42676 3.79116,-119.99618 16.1003,-8.43608 41.75232,-8.43608 57.85262,0 23.36376,12.24192 36.04932,34.29978 36.06433,62.7093 0.0197,37.33633 -28.5218,66.57259 -64.99064,66.57259 -14.57815,0 -19.87725,-1.50396 -32.71747,-9.28571 z"
       id="path3742"
       inkscape:connector-curvature="0"
       transform="scale(0.26458333)" />
    <path
       style="fill:#000000;stroke-width:2.85714293"
       d="M 361.3648,912.04086 C 308.26946,896.83163 263.89742,849.5538 251.33616,794.80678 c -5.32329,-23.20103 -4.072,-61.28732 2.73163,-83.14424 17.33049,-55.67487 63.3503,-98.27753 118.78935,-109.96879 25.14683,-5.30309 37.71032,-5.30309 62.85715,0 56.88669,11.99654 103.13588,55.8211 119.95077,113.66232 5.6706,19.5062 6.42837,58.26979 1.5544,79.51664 -12.88563,56.17166 -58.73869,103.89843 -113.34616,117.97786 -22.70437,5.85386 -60.54236,5.48252 -82.5085,-0.80971 z"
       id="path3744"
       inkscape:connector-curvature="0"
       transform="scale(0.26458333)" />
    <path
       style="fill:#b3b3b3;stroke-width:2.85714293"
       d="m 379.24829,1071.621 c -67.86825,-6.1011 -114.24002,-14.4244 -217.10543,-38.9683 l -56.42857,-13.464 V 599.98583 180.78296 l 14.27121,5.42264 c 17.67295,6.71519 50.37881,12.50995 106.69376,18.90378 54.56073,6.19467 272.27811,7.1802 324.74931,1.47003 72.28577,-7.86648 107.20929,-14.43859 132.15209,-24.86914 4.76323,-1.99188 4.97371,19.14128 4.28571,430.31424 L 687.14286,1044.4335 640,1053.4974 c -25.92857,4.9852 -63.21429,11.1947 -82.85714,13.799 -41.94935,5.5617 -138.12486,7.8998 -177.89457,4.3246 z m 58.46822,-154.52123 c 56.39923,-11.67503 106.04935,-60.24694 120.80375,-118.18037 5.62465,-22.08529 5.53688,-60.34926 -0.18943,-82.55874 -9.32112,-36.15217 -38.13432,-75.83289 -69.83563,-96.17555 -49.1342,-31.52934 -119.2849,-31.52934 -168.4191,0 -31.7013,20.34266 -60.51451,60.02338 -69.83561,96.17555 -5.72625,22.20948 -5.81402,60.47345 -0.18937,82.55874 14.27519,56.05177 61.86279,103.99446 116.31244,117.18037 19.03521,4.60969 51.70358,5.06754 71.3529,1 z M 644.62211,704.328 C 680.38903,682.21503 688.34229,629.59386 660.78374,597.39789 646.666,580.90446 631.00249,573.54846 610,573.54846 c -71.52511,0 -93.73703,101.14957 -29.3656,133.72631 20.67197,10.46157 44.04094,9.38537 63.98771,-2.94677 z m -423.03409,-9.48297 c 14.26694,-6.48023 30.66564,-25.13332 35.0961,-39.92089 5.82722,-19.44954 4.19047,-43.24171 -4.12235,-59.92337 -21.64508,-43.436 -80.79593,-48.90426 -107.60262,-9.94746 -10.83444,15.74518 -13.53058,24.71552 -13.53058,45.01775 0,20.93288 4.85748,34.30554 17.82654,49.07648 17.70704,20.1672 48.01271,26.74406 72.33291,15.69749 z M 518.59594,574.90546 c 12.98823,-5.90043 28.79209,-22.56992 34.61863,-36.51477 6.67466,-15.97472 5.05106,-43.35309 -3.60054,-60.71455 -31.32914,-62.86943 -121.0426,-38.25467 -121.0426,33.21057 0,21.18438 4.23366,32.7794 17.47523,47.86072 12.19137,13.8852 28.57388,21.36106 46.81048,21.36106 7.85715,0 19.4396,-2.34138 25.7388,-5.20303 z m -159.6578,-10.5962 c 25.18897,-15.57315 37.37703,-54.35109 25.78054,-82.0242 -22.5029,-53.69944 -95.68872,-53.27216 -118.29737,0.69065 -6.8258,16.292 -3.77408,45.05618 6.55225,61.75863 18.26085,29.53623 55.96551,38.12192 85.96458,19.57492 z"
       id="path3746"
       inkscape:connector-curvature="0"
       transform="scale(0.26458333)" />
  </g>
</svg>
