<?xml version="1.0" encoding="UTF-8" standalone="no"?>
<!-- Created with Inkscape (http://www.inkscape.org/) -->

<svg
   xmlns:dc="http://purl.org/dc/elements/1.1/"
   xmlns:cc="http://creativecommons.org/ns#"
   xmlns:rdf="http://www.w3.org/1999/02/22-rdf-syntax-ns#"
   xmlns:svg="http://www.w3.org/2000/svg"
   xmlns="http://www.w3.org/2000/svg"
   xmlns:sodipodi="http://sodipodi.sourceforge.net/DTD/sodipodi-0.dtd"
   xmlns:inkscape="http://www.inkscape.org/namespaces/inkscape"
   width="210mm"
   height="297mm"
   viewBox="0 0 210 297"
   version="1.1"
   id="svg8"
   inkscape:version="0.92.3 (2405546, 2018-03-11)"
   sodipodi:docname="goodthing.svg">
  <defs
     id="defs2">
    <inkscape:path-effect
       effect="bspline"
       id="path-effect18"
       is_visible="true"
       weight="33.333333"
       steps="2"
       helper_size="0"
       apply_no_weight="true"
       apply_with_weight="true"
       only_selected="false" />
  </defs>
  <sodipodi:namedview
     id="base"
     pagecolor="#ffffff"
     bordercolor="#666666"
     borderopacity="1.0"
     inkscape:pageopacity="0.0"
     inkscape:pageshadow="2"
     inkscape:zoom="0.35"
     inkscape:cx="-101.42857"
     inkscape:cy="674.28571"
     inkscape:document-units="mm"
     inkscape:current-layer="layer1"
     showgrid="false"
     inkscape:window-width="1440"
     inkscape:window-height="837"
     inkscape:window-x="-8"
     inkscape:window-y="-8"
     inkscape:window-maximized="1" />
  <metadata
     id="metadata5">
    <rdf:RDF>
      <cc:Work
         rdf:about="">
        <dc:format>image/svg+xml</dc:format>
        <dc:type
           rdf:resource="http://purl.org/dc/dcmitype/StillImage" />
        <dc:title />
      </cc:Work>
    </rdf:RDF>
  </metadata>
  <g
     inkscape:label="Layer 1"
     inkscape:groupmode="layer"
     id="layer1">
    <path
       sodipodi:type="star"
       style="fill:#ffff00;fill-opacity:1;stroke-width:0.26458332"
       id="path24"
       sodipodi:sides="5"
       sodipodi:cx="104.1721"
       sodipodi:cy="156.69737"
       sodipodi:r1="143.91713"
       sodipodi:r2="71.958565"
       sodipodi:arg1="-0.331717"
       sodipodi:arg2="0.29660153"
       inkscape:flatsided="false"
       inkscape:rounded="0"
       inkscape:randomized="0"
       d="m 240.24352,109.82833 -67.25491,67.9005 17.80698,93.89683 L 105.43546,228.64485 21.636935,274.596 36.136384,180.1319 -33.460933,114.63445 60.860349,99.233231 101.64537,12.802425 145.43968,97.748057 Z"
       inkscape:transform-center-x="0.57633118"
       inkscape:transform-center-y="-9.214079"
       transform="matrix(0.73812664,0,0,0.7088755,27.945791,-7.744424)" />
    <ellipse
       style="fill:#808080;stroke-width:0.19981913"
       id="path10"
       cx="129.96275"
       cy="61.721851"
       rx="58.208336"
       ry="8.4847126" />
    <path
       style="fill:none;stroke:#000000;stroke-width:0.19981913px;stroke-linecap:butt;stroke-linejoin:miter;stroke-opacity:1"
       d="m 72.868436,62.599582 v 4.68121 0 168.523958"
       id="path12"
       inkscape:connector-curvature="0" />
    <path
       style="fill:none;stroke:#000000;stroke-width:0.19981913px;stroke-linecap:butt;stroke-linejoin:miter;stroke-opacity:1"
       d="M 187.61406,62.599582 V 241.07112"
       id="path14"
       inkscape:connector-curvature="0" />
    <path
       style="fill:none;stroke:#000000;stroke-width:0.19981913px;stroke-linecap:butt;stroke-linejoin:miter;stroke-opacity:1"
       d="m 72.868436,235.80475 c 12.997217,3.51095 25.994284,7.02187 39.176994,9.16741 13.18271,2.14555 26.55127,2.92576 39.17694,2.04802 12.62567,-0.87774 24.50888,-3.41344 36.39169,-5.94906"
       id="path16"
       inkscape:connector-curvature="0"
       inkscape:path-effect="#path-effect18"
       inkscape:original-d="m 72.868436,235.80475 c 12.99728,3.51072 25.99435,7.02162 38.991244,10.53275 13.36847,0.78 26.73703,1.56021 40.10526,2.34062 11.88307,-2.53584 23.76627,-5.07155 35.64912,-7.607" />
    <ellipse
       style="fill:#000000;stroke-width:0.20407823"
       id="path3728"
       cx="90.693001"
       cy="155.63885"
       rx="12.811403"
       ry="14.628818" />
    <ellipse
       style="fill:#808080;stroke-width:0.19981913"
       id="path3730"
       cx="116.31582"
       cy="131.06244"
       rx="12.254386"
       ry="13.458512" />
    <ellipse
       style="fill:#808080;stroke-width:0.17696279"
       id="path3732"
       cx="148.90134"
       cy="131.64758"
       rx="12.532894"
       ry="14.043666" />
    <ellipse
       style="fill:#808080;stroke-width:0.28886387"
       id="path3734"
       cx="171.73906"
       cy="158.85718"
       rx="13.089911"
       ry="14.33624" />
    <ellipse
       style="fill:#808080;stroke-width:0.21120583"
       id="path3736"
       cx="131.63377"
       cy="182.26331"
       rx="30.914473"
       ry="33.061127" />
    <path
       style="fill:#000000;stroke-width:0.57091182"
       d="m 111.58117,143.13448 c -11.692764,-6.3754 -8.16277,-25.0572 4.73465,-25.0572 9.0949,0 14.81828,10.54472 10.44634,19.24628 -1.16421,2.31715 -4.20849,5.33304 -6.16572,6.10821 -2.29598,0.90934 -7.09233,0.75118 -9.01527,-0.29729 z"
       id="path3738"
       inkscape:connector-curvature="0" />
    <path
       style="fill:#000000;stroke-width:0.57091182"
       d="m 143.86514,144.12323 c -4.28203,-2.0433 -7.03869,-6.84427 -7.08733,-12.3432 -0.0368,-4.15763 1.51645,-7.85596 4.47513,-10.65552 4.68358,-4.4317 10.61322,-4.4317 15.29681,0 8.84915,8.37326 3.86109,24.07291 -7.64841,24.07291 -1.5318,0 -3.79809,-0.48339 -5.0362,-1.07419 z"
       id="path3740"
       inkscape:connector-curvature="0" />
    <path
       style="fill:#000000;stroke-width:0.57091182"
       d="m 165.36059,170.82355 c -8.82142,-5.61621 -8.40256,-19.54373 0.73911,-24.57563 3.13885,-1.72774 8.13987,-1.72774 11.27872,0 4.55491,2.50719 7.02804,7.02471 7.03097,12.84308 0.004,7.64661 -5.5605,13.6343 -12.67033,13.6343 -2.8421,0 -3.87519,-0.30802 -6.37847,-1.90175 z"
       id="path3742"
       inkscape:connector-curvature="0" />
    <path
       style="fill:#000000;stroke-width:0.57091182"
       d="m 123.2661,213.76347 c -10.35126,-3.11491 -19.00187,-12.79757 -21.45076,-24.00995 -1.03781,-4.75165 -0.79386,-12.55185 0.53255,-17.02822 3.37869,-11.40241 12.35053,-20.12758 23.15871,-22.52199 4.90253,-1.08609 7.35186,-1.08609 12.25439,0 11.09041,2.45693 20.10697,11.43235 23.38514,23.27843 1.10552,3.99494 1.25325,11.93386 0.30304,16.28529 -2.51213,11.50414 -11.45147,21.27875 -22.09753,24.16227 -4.42636,1.19889 -11.8031,1.12284 -16.08554,-0.16583 z"
       id="path3744"
       inkscape:connector-curvature="0" />
    <path
       style="fill:#b3b3b3;stroke-width:0.57091182"
       d="m 126.7526,246.44603 c -13.23133,-1.24953 -22.27179,-2.95417 -42.326044,-7.98085 l -11.0011,-2.75747 V 149.85352 63.999342 l 2.78226,1.11058 c 3.44545,1.37529 9.82166,2.56208 20.80061,3.87156 10.636954,1.26869 53.082294,1.47053 63.311874,0.30106 14.09256,-1.61108 20.90111,-2.95707 25.76386,-5.09328 0.92862,-0.40794 0.96966,3.9202 0.83553,88.129828 l -0.14105,88.55884 -9.19079,1.85632 c -5.05494,1.02099 -12.32402,2.29271 -16.15351,2.82608 -8.17829,1.13906 -26.92829,1.61791 -34.68164,0.8857 z m 11.39874,-31.64648 c 10.99537,-2.39109 20.67497,-12.33878 23.55143,-24.20375 1.09656,-4.52314 1.07945,-12.35973 -0.0369,-16.90831 -1.81721,-7.40409 -7.43452,-15.53084 -13.61489,-19.69709 -9.57901,-6.45731 -23.25532,-6.45731 -32.83433,0 -6.18037,4.16625 -11.79768,12.293 -13.61489,19.69709 -1.11637,4.54858 -1.13348,12.38517 -0.0369,16.90831 2.78304,11.4796 12.06054,21.29842 22.67583,23.99894 3.71103,0.94408 10.07993,1.03785 13.91069,0.20481 z m 40.33751,-43.57639 c 6.97298,-4.52881 8.52352,-15.30581 3.15081,-21.89966 -2.75234,-3.37791 -5.80603,-4.88444 -9.9006,-4.88444 -13.94426,0 -18.27461,20.71578 -5.725,27.38761 4.03012,2.14256 8.58605,1.92215 12.47479,-0.60351 z m -82.473094,-1.94215 c 2.78143,-1.32717 5.978454,-5.14739 6.842204,-8.17593 1.13605,-3.98334 0.81696,-8.85605 -0.80368,-12.27252 -4.219844,-8.89584 -15.751664,-10.01576 -20.977794,-2.03727 -2.11224,3.22467 -2.63787,5.06182 -2.63787,9.21979 0,4.28713 0.94699,7.02589 3.47539,10.05103 3.4521,4.13031 9.36038,5.47728 14.10175,3.2149 z m 57.903524,-24.56403 c 2.53213,-1.20843 5.61319,-4.6224 6.74911,-7.47835 1.30127,-3.27168 0.98474,-8.87887 -0.70194,-12.43455 -6.10781,-12.87587 -23.598,-7.83469 -23.598,6.80164 0,4.33863 0.82538,6.71333 3.4069,9.80204 2.37678,2.84373 5.57065,4.37481 9.12599,4.37481 1.5318,0 3.78987,-0.47952 5.01794,-1.06559 z m -31.12627,-2.17014 c 4.91074,-3.18944 7.28688,-11.13129 5.02607,-16.79884 -4.38707,-10.99783 -18.6551,-10.91032 -23.06279,0.14145 -1.33074,3.33665 -0.73579,9.22766 1.2774,12.64838 3.56006,6.04912 10.91082,7.8075 16.75932,4.00901 z"
       id="path3746"
       inkscape:connector-curvature="0" />
  </g>
</svg>
