<?xml version="1.0" encoding="UTF-8" standalone="no"?>
<svg
   xmlns:dc="http://purl.org/dc/elements/1.1/"
   xmlns:cc="http://creativecommons.org/ns#"
   xmlns:rdf="http://www.w3.org/1999/02/22-rdf-syntax-ns#"
   xmlns:svg="http://www.w3.org/2000/svg"
   xmlns="http://www.w3.org/2000/svg"
   xmlns:sodipodi="http://sodipodi.sourceforge.net/DTD/sodipodi-0.dtd"
   xmlns:inkscape="http://www.inkscape.org/namespaces/inkscape"
   id="svg8"
   version="1.1"
   viewBox="0 0 5.2916665 5.2916668"
   height="20"
   width="20"
   sodipodi:docname="monster.svg"
   inkscape:version="0.92.3 (2405546, 2018-03-11)">
  <sodipodi:namedview
     pagecolor="#ffffff"
     bordercolor="#666666"
     borderopacity="1"
     objecttolerance="10"
     gridtolerance="10"
     guidetolerance="10"
     inkscape:pageopacity="0"
     inkscape:pageshadow="2"
     inkscape:window-width="1440"
     inkscape:window-height="837"
     id="namedview11"
     showgrid="false"
     units="px"
     inkscape:zoom="9.5144352"
     inkscape:cx="31.72135"
     inkscape:cy="14.115978"
     inkscape:window-x="-8"
     inkscape:window-y="-8"
     inkscape:window-maximized="1"
     inkscape:current-layer="svg8" />
  <defs
     id="defs2" />
  <metadata
     id="metadata5">
    <rdf:RDF>
      <cc:Work
         rdf:about="">
        <dc:format>image/svg+xml</dc:format>
        <dc:type
           rdf:resource="http://purl.org/dc/dcmitype/StillImage" />
        <dc:title></dc:title>
      </cc:Work>
    </rdf:RDF>
  </metadata>
  <g
     id="layer1"
     transform="matrix(0.01556195,0,0,0.01534534,0.98660861,0.39385027)">
    <path
       id="path3863"
       d="m 14.622663,294.87311 c 19.6805,-0.384 65.113166,-6.01741 93.796377,-22.53355 28.6832,-16.51614 40.6172,-43.91505 46.79346,-77.71515 6.17627,-33.8001 6.59501,-74.0025 3.76855,-107.290606 C 156.15459,54.0457 150.08291,27.671007 132.70565,13.971734 115.3284,0.27246004 86.644909,-0.75179988 65.812852,4.7534845 44.980794,10.258769 32.000129,22.293652 26.033044,44.699484 20.06596,67.105316 21.112775,99.880792 26.55633,127.53577 c 5.443555,27.65498 15.283735,50.18836 20.099214,68.36883 4.815479,18.18047 4.606113,32.00783 -0.313991,43.65881 -4.920103,11.65098 -14.550796,21.12513 -21.878713,28.42299 -7.327916,7.29787 -12.352601,12.41901 -17.9009619,17.41238 -5.548361,4.99337 -11.6197149,9.85834 8.0607849,9.47433 z"
       style="fill:none;stroke:#000000;stroke-width:0.24311805px;stroke-linecap:butt;stroke-linejoin:miter;stroke-opacity:1"
       inkscape:connector-curvature="0" />
    <path
       id="path3867"
       d="m 108.88135,157.11118 c 25.14948,-9.5983 50.29843,-19.1964 69.37653,-15.50491 19.07811,3.69148 32.08649,20.6731 33.17064,36.36212 1.08415,15.68901 -9.75585,30.08607 -15.8265,28.9784 -6.07064,-1.10768 -7.37141,-17.71925 -17.99424,-26.57883 -10.62282,-8.85959 -30.56897,-9.96708 -40.3252,-10.33622 -9.75624,-0.36914 -9.32264,2e-5 -8.67216,0.3692 0.65048,0.36917 1.5177,0.73833 2.38467,1.10739"
       style="fill:#808080;stroke:#000000;stroke-width:0.42008883px;stroke-linecap:butt;stroke-linejoin:miter;stroke-opacity:1"
       inkscape:connector-curvature="0" />
    <path
       id="path3871"
       d="m 115.62983,47.675336 c 11.98475,4.611149 31.41949,12.186611 41.29872,16.138987 9.87923,3.952376 10.20315,4.281748 6.15442,8.728044 -4.04873,4.446296 -12.47045,13.00986 -21.05439,15.480253 -8.58394,2.470394 -17.32921,-1.152502 -24.13142,-3.952148 -6.8022,-2.799647 -11.6608,-4.77582 -15.22398,-12.022312 -3.563189,-7.246492 -5.830493,-19.762016 -4.69673,-25.196433 1.133763,-5.434417 5.66864,-3.78754 17.65338,0.823609 z"
       style="fill:#000000;stroke:#000000;stroke-width:0.34296015px;stroke-linecap:butt;stroke-linejoin:miter;stroke-opacity:1"
       inkscape:connector-curvature="0" />
    <path
       id="path3884"
       d="m 0.31055711,293.34788 c -1.00235404,-0.37603 -1.82246191,-1.02103 -1.82246191,-1.43336 0,-0.41232 7.87514,-7.99227 17.5003118,-16.8443 C 40.417382,252.60346 46.958415,243.99544 49.87885,230.47026 52.936522,216.3095 51.032171,205.62627 39.665615,173.175 25.31367,132.20051 21.147783,111.46015 21.183435,81.159296 21.215185,54.174101 25.747981,36.60091 35.996529,23.730415 43.035693,14.890381 53.987373,8.6891364 69.361617,4.8378729 76.80391,2.9735708 78.743641,2.805807 93.256117,2.771286 107.26551,2.737961 109.82898,2.9298027 115.93565,4.4685378 c 30.94307,7.7969342 44.32433,27.7099782 49.78079,74.0802972 1.65253,14.043453 3.02213,40.202115 2.71816,51.914855 l -0.25504,9.82738 -5.04332,0.5192 c -7.50204,0.77232 -19.12161,3.93447 -31.19628,8.48975 -15.13536,5.70995 -18.43788,7.10642 -18.4087,7.78412 0.014,0.32661 3.51461,2.97509 7.77898,5.8855 4.26437,2.91042 8.53566,6.05119 9.49173,6.9795 1.72179,1.67177 4.32218,2.41357 3.35829,0.958 -0.59799,-0.90304 -1.40606,-0.9034 10.33518,0.005 5.23885,0.40513 12.07308,1.27747 15.18718,1.93851 6.50486,1.38081 6.3839,1.1006 4.80959,11.14125 -7.748,49.41536 -25.08816,76.11419 -59.49134,91.59955 -18.385496,8.27553 -47.849632,15.19634 -75.616744,17.7615 -10.159675,0.93856 -26.5663114,0.93596 -29.07356889,-0.005 z M 142.49224,82.479128 c 5.05115,-2.230186 16.37251,-11.527872 16.37251,-13.445945 0,-1.354857 -3.31541,-2.733837 -27.1183,-11.279301 -23.45572,-8.420833 -27.72814,-9.504233 -29.52256,-7.486327 -1.60994,1.810459 -0.6833,12.546975 1.56051,18.08101 3.14527,7.75733 7.11407,10.671916 19.84609,14.574459 7.93119,2.431029 12.59917,2.321166 18.86175,-0.443896 z"
       style="fill:#808080;stroke-width:0.78250158"
       inkscape:connector-curvature="0" />
  </g>
  <g
     id="layer2"
     transform="translate(0,-291.70832)" />
</svg>
