<?xml version="1.0" encoding="UTF-8" standalone="no"?>
<!-- Created with Inkscape (http://www.inkscape.org/) -->

<svg
   xmlns:dc="http://purl.org/dc/elements/1.1/"
   xmlns:cc="http://creativecommons.org/ns#"
   xmlns:rdf="http://www.w3.org/1999/02/22-rdf-syntax-ns#"
   xmlns:svg="http://www.w3.org/2000/svg"
   xmlns="http://www.w3.org/2000/svg"
   xmlns:sodipodi="http://sodipodi.sourceforge.net/DTD/sodipodi-0.dtd"
   xmlns:inkscape="http://www.inkscape.org/namespaces/inkscape"
   width="300mm"
   height="297mm"
   viewBox="0 0 300 297"
   version="1.1"
   id="svg8"
   inkscape:version="0.92.3 (2405546, 2018-03-11)"
   sodipodi:docname="player.svg">
  <defs
     id="defs2">
    <inkscape:path-effect
       effect="bspline"
       id="path-effect126"
       is_visible="true"
       weight="33.333333"
       steps="2"
       helper_size="0"
       apply_no_weight="true"
       apply_with_weight="true"
       only_selected="false" />
    <inkscape:path-effect
       effect="bspline"
       id="path-effect122"
       is_visible="true"
       weight="33.333333"
       steps="2"
       helper_size="0"
       apply_no_weight="true"
       apply_with_weight="true"
       only_selected="false" />
    <inkscape:path-effect
       effect="bspline"
       id="path-effect92"
       is_visible="true"
       weight="33.333333"
       steps="2"
       helper_size="0"
       apply_no_weight="true"
       apply_with_weight="true"
       only_selected="false" />
    <inkscape:path-effect
       effect="bspline"
       id="path-effect88"
       is_visible="true"
       weight="33.333333"
       steps="2"
       helper_size="0"
       apply_no_weight="true"
       apply_with_weight="true"
       only_selected="false" />
    <inkscape:path-effect
       effect="bspline"
       id="path-effect74"
       is_visible="true"
       weight="33.333333"
       steps="2"
       helper_size="0"
       apply_no_weight="true"
       apply_with_weight="true"
       only_selected="false" />
    <inkscape:path-effect
       effect="bspline"
       id="path-effect66"
       is_visible="true"
       weight="33.333333"
       steps="2"
       helper_size="0"
       apply_no_weight="true"
       apply_with_weight="true"
       only_selected="false" />
    <inkscape:path-effect
       effect="bspline"
       id="path-effect62"
       is_visible="true"
       weight="33.333333"
       steps="2"
       helper_size="0"
       apply_no_weight="true"
       apply_with_weight="true"
       only_selected="false" />
    <inkscape:path-effect
       effect="spiro"
       id="path-effect54"
       is_visible="true" />
    <inkscape:path-effect
       effect="bspline"
       id="path-effect24"
       is_visible="true"
       weight="33.333333"
       steps="2"
       helper_size="0"
       apply_no_weight="true"
       apply_with_weight="true"
       only_selected="false" />
    <inkscape:path-effect
       effect="bspline"
       id="path-effect16"
       is_visible="true"
       weight="33.333333"
       steps="2"
       helper_size="0"
       apply_no_weight="true"
       apply_with_weight="true"
       only_selected="false" />
    <inkscape:path-effect
       effect="bspline"
       id="path-effect12"
       is_visible="true"
       weight="33.333333"
       steps="2"
       helper_size="0"
       apply_no_weight="true"
       apply_with_weight="true"
       only_selected="false" />
  </defs>
  <sodipodi:namedview
     id="base"
     pagecolor="#ffffff"
     bordercolor="#666666"
     borderopacity="1.0"
     inkscape:pageopacity="0.0"
     inkscape:pageshadow="2"
     inkscape:zoom="0.35"
     inkscape:cx="-166.73348"
     inkscape:cy="560"
     inkscape:document-units="mm"
     inkscape:current-layer="layer1"
     showgrid="false"
     inkscape:window-width="1440"
     inkscape:window-height="837"
     inkscape:window-x="-8"
     inkscape:window-y="-8"
     inkscape:window-maximized="1" />
  <metadata
     id="metadata5">
    <rdf:RDF>
      <cc:Work
         rdf:about="">
        <dc:format>image/svg+xml</dc:format>
        <dc:type
           rdf:resource="http://purl.org/dc/dcmitype/StillImage" />
        <dc:title></dc:title>
      </cc:Work>
    </rdf:RDF>
  </metadata>
  <g
     inkscape:label="Layer 1"
     inkscape:groupmode="layer"
     id="layer1">
    <path
       style="fill:none;stroke:#000000;stroke-width:0.26458332px;stroke-linecap:butt;stroke-linejoin:miter;stroke-opacity:1"
       d="m 104.32143,228.20833 v 0 0 0"
       id="path36"
       inkscape:connector-curvature="0" />
    <path
       style="fill:none;stroke:#000000;stroke-width:0.26458332px;stroke-linecap:butt;stroke-linejoin:miter;stroke-opacity:1"
       d="m 104.32143,228.20833 v 0 0"
       id="path42"
       inkscape:connector-curvature="0" />
    <path
       style="fill:none;stroke:#000000;stroke-width:0.26458332px;stroke-linecap:butt;stroke-linejoin:miter;stroke-opacity:1"
       d="m 104.32143,228.20833 v 0 0 0"
       id="path44"
       inkscape:connector-curvature="0" />
    <g
       id="g69"
       transform="matrix(1.4703556,0,0,1.4995439,-6.4427834,-134.0555)"
       inkscape:transform-center-x="9.4095102"
       inkscape:transform-center-y="1.8545531">
      <path
         sodipodi:nodetypes="cccccccccccccc"
         inkscape:original-d="m 142.875,114.81548 c 5.7959,-3.27606 11.59153,-6.55186 17.3869,-9.82739 8.81923,3.7793 17.63916,7.55926 26.45834,11.33929 0.25224,6.29925 1.0082,12.59894 1.5119,18.89881 5.79612,-1.26023 11.59154,-2.52011 17.38691,-3.77976 -0.50368,6.80294 -1.00768,13.60687 -1.51191,20.41071 -4.03165,7.05558 -8.06323,14.11085 -12.09524,21.16667 -3.02368,5.54363 -6.04735,11.08703 -9.07143,16.63095 0.75626,-7.05622 1.51217,-14.11137 2.26786,-21.16667 -2.01553,6.04711 -4.03148,12.09498 -6.04762,18.14286 0.50426,-6.5522 1.0082,-13.10344 1.51191,-19.65476 -8.06288,6.04709 -16.12672,12.09497 -24.19048,18.14285 -2.26767,10.58346 -4.53545,21.16641 -6.80357,31.75 -5.79554,4.0316 -11.59101,8.06323 -17.38691,12.09524"
         inkscape:path-effect="#path-effect12"
         inkscape:connector-curvature="0"
         id="path10"
         d="m 142.875,114.81548 c 5.79595,-3.27597 11.59158,-6.55177 18.89879,-6.29977 7.30721,0.25199 16.12713,4.03196 20.78796,9.06144 4.66083,5.02947 5.1664,11.34919 8.31648,13.8691 3.15007,2.51991 8.94549,1.26003 11.5912,4.03157 2.6457,2.77153 2.1417,9.57546 -0.12616,16.50516 -2.26786,6.92969 -6.29945,13.98496 -9.82729,20.28469 -3.52785,6.29972 -6.55152,11.84312 -7.6855,11.08698 -1.13398,-0.75613 -0.37807,-7.81128 -1.00795,-8.31539 -0.62989,-0.50411 -2.64584,5.54376 -3.40182,5.29161 -0.75598,-0.25214 -0.25204,-6.80338 -4.03149,-7.05546 -3.77945,-0.25209 -11.84329,5.79579 -17.00912,14.11142 -5.16583,8.31563 -7.43361,18.89858 -11.46532,26.20622 -4.03171,7.30764 -9.82718,11.33927 -15.62312,15.37123"
         style="fill:none;stroke:#000000;stroke-width:0.26458332px;stroke-linecap:butt;stroke-linejoin:miter;stroke-opacity:1" />
      <path
         sodipodi:nodetypes="cccccccccccc"
         inkscape:original-d="m 117.92857,117.83928 c 13.10344,-3.78002 26.20662,-7.55978 39.30953,-11.33928 -5.54339,11.84299 -11.08704,23.68624 -16.63096,35.52976 -3.52762,8.31547 -7.05529,16.63069 -10.58333,24.94643 -7.55955,1.76369 -15.11879,3.52751 -22.67857,5.29166 -8.06356,-3.78018 -16.126724,-7.55978 -24.19048,-11.33928 7.811886,-2.26815 15.62328,-4.53598 23.43452,-6.80357 -6.803029,-5.54369 -13.606874,-11.08757 -20.410709,-16.63095 6.04791,1.51164 12.095501,3.02354 18.142859,4.53571 -7.307052,-7.55956 -14.614817,-15.11931 -21.922622,-22.67857 8.567719,3.02354 18.143122,6.04735 27.214282,9.07143 2.77204,-3.52798 5.54392,-7.05582 8.31548,-10.58334 z"
         inkscape:path-effect="#path-effect16"
         inkscape:connector-curvature="0"
         id="path14"
         d="m 123.09452,117.7131 c 7.93754,-3.65367 21.04072,-7.43343 24.8204,-3.4018 3.77968,4.03164 -1.76398,15.87489 -6.29975,25.95438 -4.53578,10.07949 -8.06345,18.39472 -13.60716,23.43455 -5.54371,5.03984 -13.10294,6.80366 -20.91471,5.79571 -7.811769,-1.00795 -15.874931,-4.78756 -16.000768,-7.81145 -0.125837,-3.0239 7.685559,-5.29173 8.189521,-9.19731 0.503963,-3.90558 -6.299885,-9.44946 -6.677768,-11.46532 -0.377883,-2.01585 5.669709,-0.50396 5.039765,-3.52768 -0.629943,-3.02372 -7.937705,-10.58347 -7.282469,-12.9269 0.655236,-2.34342 10.180239,0.83158 16.101879,0.57946 5.92164,-0.25213 8.69351,-3.77997 16.63106,-7.43364 z"
         style="fill:none;stroke:#000000;stroke-width:0.26458332px;stroke-linecap:butt;stroke-linejoin:miter;stroke-opacity:1" />
      <path
         inkscape:original-d="m 133.04762,207.79762 c -0.25173,7.05529 -0.50371,14.11084 -0.75596,21.16666 0.25226,5.03961 0.50423,10.0791 0.75596,15.11905 2.26823,5.54366 4.53598,11.08704 6.80357,16.63095 1.7642,1.51168 3.52804,3.02355 5.29167,4.53572 -0.25172,5.7953 -0.50371,11.591 -0.75596,17.38691 -4.28367,1.76371 -8.56719,3.5275 -12.85119,5.29167 -8.81983,-0.25228 -17.63862,-0.50425 -26.45833,-0.75597 -0.25173,-19.65558 -0.5037,-39.30978 -0.75595,-58.96428"
         inkscape:path-effect="#path-effect24"
         inkscape:connector-curvature="0"
         id="path22"
         d="m 133.04762,207.79762 c -0.25198,7.05528 -0.50396,14.11083 -0.50397,20.15856 -1e-5,6.04772 0.25197,11.08721 1.51193,16.37908 1.25995,5.29186 3.5277,10.83524 5.54363,14.36311 2.01594,3.52787 3.77978,5.03974 4.53573,8.69333 0.75595,3.65359 0.50396,9.44929 -1.76385,13.22917 -2.26781,3.77988 -6.55132,5.54368 -13.10327,6.2997 -6.55195,0.75601 -15.37074,0.50404 -19.90659,-9.44975 -4.53584,-9.95379 -4.78782,-29.60799 -5.0398,-49.26249"
         style="fill:none;stroke:#000000;stroke-width:0.26458332px;stroke-linecap:butt;stroke-linejoin:miter;stroke-opacity:1" />
      <path
         inkscape:connector-curvature="0"
         id="path34"
         d="m 104.32143,228.20833 c 0,0 0,0 0,0 z"
         style="fill:none;stroke:#000000;stroke-width:0.26458332px;stroke-linecap:butt;stroke-linejoin:miter;stroke-opacity:1" />
      <path
         inkscape:connector-curvature="0"
         id="path38"
         d="m 104.32143,228.20833 c 0,0 0,0 0,0 z"
         style="fill:none;stroke:#000000;stroke-width:0.26458332px;stroke-linecap:butt;stroke-linejoin:miter;stroke-opacity:1" />
      <path
         inkscape:connector-curvature="0"
         id="path40"
         d="m 104.32143,228.20833 v 0 c 0,0 0,0 0,0 z"
         style="fill:none;stroke:#000000;stroke-width:0.26458332px;stroke-linecap:butt;stroke-linejoin:miter;stroke-opacity:1" />
      <path
         inkscape:connector-curvature="0"
         id="path46"
         d="m 104.32143,228.20833 v 0"
         style="fill:none;stroke:#000000;stroke-width:0.26458332px;stroke-linecap:butt;stroke-linejoin:miter;stroke-opacity:1" />
      <path
         inkscape:connector-curvature="0"
         id="path48"
         d="m 104.32143,228.20833 c 0,0 0,0 0,0 z"
         style="fill:none;stroke:#000000;stroke-width:0.26458332px;stroke-linecap:butt;stroke-linejoin:miter;stroke-opacity:1" />
      <path
         sodipodi:nodetypes="cc"
         inkscape:connector-curvature="0"
         id="path50"
         d="M 142.875,114.81548 Z"
         style="fill:none;stroke:#000000;stroke-width:0.26458332px;stroke-linecap:butt;stroke-linejoin:miter;stroke-opacity:1" />
      <path
         inkscape:original-d="m 142.875,114.81548 c -2.7e-4,2.6e-4 2.6e-4,-2.7e-4 0,0"
         inkscape:path-effect="#path-effect54"
         inkscape:connector-curvature="0"
         id="path52"
         d="m 142.875,114.81548 v 0"
         style="fill:none;stroke:#000000;stroke-width:0.26458332px;stroke-linecap:butt;stroke-linejoin:miter;stroke-opacity:1" />
      <path
         inkscape:transform-center-y="-11.079958"
         inkscape:transform-center-x="0.76820444"
         inkscape:original-d="m 104.89058,231.99405 c -8.517417,3.82731 -17.035165,7.655 -25.553252,11.48305 -8.953727,-1.24019 -18.480093,-2.61223 -27.720647,-3.91782"
         inkscape:path-effect="#path-effect62"
         inkscape:connector-curvature="0"
         id="path60"
         d="m 104.89058,231.99405 c -8.517333,3.8275 -17.035084,7.65518 -25.769282,8.93664 -8.734197,1.28145 -18.264118,-0.0654 -27.504617,-1.37141"
         style="fill:none;stroke:#000000;stroke-width:0.36160722px;stroke-linecap:butt;stroke-linejoin:miter;stroke-opacity:1" />
      <path
         sodipodi:nodetypes="ccccccccccccccccccc"
         inkscape:original-d="m 74.083332,209.30952 c -2.267593,8.5672 -10.0791,20.66243 -15.119048,30.99405 -7.811484,1.25969 -15.622751,2.51957 -23.434524,3.77976 0.504254,5.79559 1.008203,11.59101 1.511906,17.3869 6.804118,2.51968 13.103439,5.03943 19.654761,7.55953 2.64e-4,5.79525 2.64e-4,11.591 0,17.38691 -11.339536,0.50371 -22.678305,1.00766 -34.017856,1.51191 -3.527514,-4.03202 -7.055292,-8.06377 -10.583333,-12.09526 2.65e-4,-9.07169 2.65e-4,-18.14311 0,-27.21428 0.252241,-3.7799 0.504233,-7.55978 0.755952,-11.33928 -0.251701,-5.29154 -0.503703,-10.5836 -0.755952,-15.875 5.29168,1.2596 10.583598,2.51958 15.875001,3.77976 2.65e-4,-2.6e-4 0,0 0,0 0,0 -10.58307,-19.15106 -15.875001,-28.72619 2.268122,-9.0717 4.536143,-18.14378 6.803571,-27.21429 10.58283,0.25171 21.166931,0.50371 31.75,0.75596 5.795758,1.76358 11.591535,3.52751 17.386905,5.29167 9.323406,-3.52795 18.64709,-6.55186 27.970236,-9.82739 2.65e-4,-0.25224 2.65e-4,-0.50423 0,-0.75595"
         inkscape:path-effect="#path-effect66"
         inkscape:connector-curvature="0"
         id="path64"
         d="m 74.083332,209.30952 c -3.811697,7.81398 -10.079208,20.66238 -16.504852,26.45817 -6.425644,5.79579 -14.236911,7.05567 -17.890832,10.58346 -3.653921,3.52779 -3.149971,9.32321 0.487784,13.52336 3.637755,4.20015 9.969553,6.63546 13.245274,10.79298 3.275721,4.15752 3.275721,9.95327 -2.394041,13.10322 -5.669762,3.14994 -17.008531,3.65389 -24.44221,1.88999 -7.433679,-1.76389 -10.961456,-5.79565 -12.725336,-12.34736 -1.763881,-6.55171 -1.763881,-15.62313 -1.637884,-22.04867 0.125997,-6.42555 0.377989,-10.20543 0.377984,-14.74093 -6e-6,-4.53551 -0.252009,-9.82757 2.267809,-11.84332 2.519817,-2.01575 7.811735,-0.75577 10.457473,-0.12584 2.645738,0.62994 2.645738,0.62994 2.645738,0.62994 -5.291667,-9.5754 -10.583385,-19.15089 -12.095225,-28.47441 -1.51184,-9.32353 0.75618,-18.39561 7.181399,-22.80485 6.42522,-4.40925 17.009321,-4.15724 25.198689,-3.1493 8.189368,1.00794 13.985144,2.77187 21.584011,2.00204 7.598867,-0.76983 16.843745,-4.01804 21.505291,-5.782 4.661546,-1.76396 4.661546,-2.01595 4.661546,-2.26767"
         style="fill:none;stroke:#000000;stroke-width:0.26458332px;stroke-linecap:butt;stroke-linejoin:miter;stroke-opacity:1" />
      <path
         sodipodi:nodetypes="cccccc"
         inkscape:original-d="m 64.534874,241.07856 c -1.309163,5.30883 -2.512301,10.18693 -3.781496,15.33201 7.360056,1.28598 14.622037,2.5551 21.93266,3.83299 -4.789627,3.61983 -9.578782,7.23933 -14.369672,10.86016 -4.790361,-0.63916 -9.579518,-1.2779 -14.369673,-1.91649 -2.268734,-0.85204 -4.537526,-1.70377 -6.806687,-2.55534"
         inkscape:path-effect="#path-effect88"
         inkscape:connector-curvature="0"
         id="path86"
         d="m 64.534874,241.07856 c -1.309361,5.30878 -2.512498,10.18688 0.533007,13.40257 3.045506,3.21569 10.307488,4.4848 11.568015,6.93354 1.260527,2.44874 -3.52863,6.06823 -8.319278,7.55919 -4.790648,1.49096 -9.579806,0.85223 -13.109285,0.10692 -3.52948,-0.74531 -5.798268,-1.59705 -8.067327,-2.44889"
         style="fill:none;stroke:#000000;stroke-width:0.24328111px;stroke-linecap:butt;stroke-linejoin:miter;stroke-opacity:1" />
      <path
         inkscape:original-d="m 150.88364,209.30795 c -0.4852,12.09555 -0.97063,24.19137 -1.45633,36.28745 3.64116,1.76376 7.28189,3.52769 10.92245,5.29193 1.21383,5.79547 2.42747,11.59155 3.64082,17.38773 -1.69885,2.7718 -3.39784,5.54365 -5.09714,8.31588 -4.85471,-1.51241 -9.22316,-3.02422 -13.83511,-4.53592 -0.72793,-0.50429 -1.45607,-1.00826 -2.18449,-1.51198"
         inkscape:path-effect="#path-effect92"
         inkscape:connector-curvature="0"
         id="path90"
         d="m 150.88364,209.30795 c -0.48543,12.09554 -0.97088,24.19136 0.6069,31.12144 1.57778,6.93008 5.21851,8.69401 7.64563,12.47374 2.42712,3.77973 3.64076,9.57581 3.39812,13.85975 -0.24263,4.28394 -1.94161,7.05579 -5.20686,7.64995 -3.26524,0.59416 -7.65725,-0.84579 -10.32725,-1.85379 -2.66999,-1.008 -3.39813,-1.51198 -4.12634,-2.016"
         style="fill:none;stroke:#000000;stroke-width:0.25968096px;stroke-linecap:butt;stroke-linejoin:miter;stroke-opacity:1" />
      <ellipse
         ry="6.4255953"
         rx="3.7797618"
         cy="126.53274"
         cx="167.82143"
         id="path94"
         style="fill:#000000;stroke-width:0.26458332" />
      <ellipse
         ry="8.3154764"
         rx="5.6696429"
         cy="139.7619"
         cx="200.70535"
         id="path96"
         style="fill:#000000;stroke-width:0.26458332" />
      <path
         inkscape:original-d="m 165.55357,150.34524 c 3.27606,4.28346 6.55185,8.56719 9.82738,12.85119 5.79595,1.00768 11.59154,2.01561 17.38691,3.02381"
         inkscape:path-effect="#path-effect122"
         inkscape:connector-curvature="0"
         id="path120"
         d="m 165.55357,150.34524 c 3.27576,4.28369 6.55155,8.56742 11.08742,11.21329 4.53586,2.64588 10.33145,3.65381 16.12687,4.66171"
         style="fill:none;stroke:#000000;stroke-width:0.26458332px;stroke-linecap:butt;stroke-linejoin:miter;stroke-opacity:1" />
      <path
         inkscape:original-d="m 27.214285,172.26785 c -0.755687,-1.76415 -1.51164,-3.52804 -2.267857,-5.29166 1.260094,-7.55924 2.520105,-15.11931 3.779762,-22.67857 12.850945,-13.60687 25.702646,-27.21455 38.55357,-40.82143 5.795785,-5.795784 11.591536,-11.591535 17.386906,-17.386905 -18.393738,3.779324 -36.789418,7.55926 -55.184524,11.339285 -4.787513,5.29149 -9.575132,10.58307 -14.363095,15.875 -3.779695,6.04767 -7.5592586,12.59894 -11.3392852,18.89881 2.646e-4,7.55963 2.646e-4,15.11878 0,22.67857 0.7562434,9.07148 1.5121694,18.14259 2.2678572,27.21429 2.7721636,4.28358 5.543915,8.56719 8.315476,12.85119 0.252253,-0.25226 0.504233,-1.0082 0.755952,-1.51191"
         inkscape:path-effect="#path-effect126"
         inkscape:connector-curvature="0"
         id="path124"
         d="m 27.214285,172.26785 c -0.756007,-1.76401 -1.51196,-3.5279 -1.259969,-8.18942 0.251991,-4.66152 1.512003,-12.22159 8.567408,-22.80464 7.055404,-10.58305 19.907103,-24.19073 29.230462,-33.89206 9.323359,-9.701324 15.11911,-15.497075 8.819947,-16.504997 -6.299163,-1.007922 -24.694844,2.772012 -36.286181,7.307663 -11.591337,4.535654 -16.378957,9.827234 -20.607229,15.530364 -4.228273,5.70314 -8.1190117,12.1877 -10.0089865,19.11748 -1.8899747,6.92977 -1.8899747,14.48892 -1.5119954,22.80457 0.3779792,8.31564 1.133905,17.38675 2.8978198,24.06448 1.7639148,6.67773 4.5356641,10.96134 5.9972761,12.95189 1.461612,1.99054 1.814383,1.285 2.06621,0.78134"
         style="fill:none;stroke:#000000;stroke-width:0.26458332px;stroke-linecap:butt;stroke-linejoin:miter;stroke-opacity:1" />
      <path
         transform="scale(0.26458333)"
         inkscape:connector-curvature="0"
         id="path128"
         d="m 444.28571,1077.691 c -32.4226,-14.964 -43.44331,-51.9067 -46.3332,-155.31417 -0.91125,-32.60714 -2.75194,-59.28572 -4.0904,-59.28572 -1.33845,0 -2.43354,3.06172 -2.43354,6.8038 0,5.80272 -3.49251,8.30418 -23.73668,17.00098 -49.21396,21.14211 -83.77429,26.3198 -139.78857,20.9426 l -24.95383,-2.39552 15.49059,-14.15751 c 8.51982,-7.78663 20.56524,-22.19266 26.76759,-32.0134 13.63786,-21.59403 34.81815,-63.22883 34.72514,-68.26037 -0.0369,-1.99918 -7.52812,10.63902 -16.64703,28.08491 -29.69825,56.81726 -43.97963,72.63323 -83.69131,92.68426 C 147.29069,928.09154 140,935.79523 140,953.61831 c 0,16.61232 5.56263,26.67092 22.09853,39.95949 7.48866,6.01803 14.64393,12.549 15.90058,14.5133 1.25666,1.9643 3.8973,3.5714 5.8681,3.5714 1.9708,0 8.01405,4.5714 13.42946,10.1587 8.11528,8.3729 9.84619,12.3139 9.84619,22.4181 0,14.3184 -3.90425,19.8802 -19.80887,28.2184 -9.28245,4.8666 -18.01921,6.3212 -43.435,7.232 -39.85577,1.4283 -58.075453,-3.156 -73.383861,-18.4644 -17.331506,-17.3315 -19.832234,-29.8569 -21.251016,-106.44007 -1.305084,-70.44586 0.101668,-93.4952 6.216611,-101.85789 4.167451,-5.69931 15.192081,-6.60791 37.703759,-3.10734 L 107.79754,852.09231 88.447383,813.455 C 61.569729,759.7872 54.773239,727.08077 64.075539,696.1716 c 5.907148,-19.62797 15.408855,-31.87433 31.638747,-40.77787 12.372444,-6.78739 18.241344,-7.98934 43.821044,-8.97452 19.17807,-0.73864 41.10639,0.6116 62.53204,3.85042 48.27856,7.29804 75.9854,5.0624 120.57065,-9.72875 l 35.49518,-11.77551 15.9334,6.26237 c 23.46243,9.22153 67.38003,9.25433 87.36197,0.0652 28.90212,-13.29122 44.5752,-34.74015 74.26754,-101.63668 29.94766,-67.47176 35.08912,-87.56822 25.79735,-100.83409 -4.03297,-5.75786 -3.57997,-6.30178 10.17703,-12.21988 28.53248,-12.27435 56.04671,-10.52349 88.33085,5.62089 20.92352,10.46326 32.59546,22.98279 46.77897,50.17587 10.02915,19.22822 13.28543,23.08957 21.79112,25.84029 l 10,3.23397 -0.95817,17.15057 c -1.39517,24.97214 6.28531,37.81006 22.62043,37.81006 3.01431,0 5.4806,1.32719 5.4806,2.94932 0,14.03368 -56.27269,122.22833 -65,124.9745 -2.53615,0.79803 -3.57143,-3.08636 -3.57143,-13.40001 0,-15.67546 -3.87766,-18.82362 -9.09129,-7.38095 -4.30968,9.45867 -6.32017,9.01007 -9.60357,-2.14286 -2.24974,-7.64178 -4.34543,-9.44182 -11.83749,-10.16745 -27.81362,-2.69387 -63.227,37.88898 -88.03128,100.88174 -23.12766,58.7348 -33.3206,74.19031 -62.97192,95.48428 l -13.45262,9.66095 1.17065,-37.5726 c 0.64386,-20.66495 0.15906,-37.57263 -1.07734,-37.57263 -1.2364,0 -2.248,25.12563 -2.248,55.83474 0,71.59177 3.25046,88.65266 25.56126,134.16526 14.91637,30.42847 16.83097,36.31787 17.01825,52.34917 0.238,20.373 -3.87497,30.5675 -16.6792,41.3416 -16.02025,13.4802 -60.37242,17.8559 -81.6146,8.052 z M 705.66666,622.05387 c -31.30592,-7.98922 -47.92597,-17.91864 -65.659,-39.22703 -7.86135,-9.44639 -14.29337,-15.70642 -14.29337,-13.91118 0,6.1874 26.72188,34.52509 39.77471,42.17976 13.64077,7.99948 45.05063,17.45747 57.36814,17.27443 3.92857,-0.0584 -3.80714,-2.90056 -17.19048,-6.31598 z M 644.12371,496.7411 c 6.5832,-9.39885 5.84798,-32.24974 -1.26657,-39.36427 -3.14285,-3.14286 -7,-5.71429 -8.57143,-5.71429 -1.57142,0 -5.42857,2.57143 -8.57142,5.71429 -11.56866,11.56866 -5.16638,45.71428 8.57142,45.71428 2.96466,0 7.39175,-2.8575 9.838,-6.35001 z"
         style="fill:#a05a2c;stroke-width:2.85714293" />
      <path
         transform="scale(0.26458333)"
         inkscape:connector-curvature="0"
         id="path130"
         d="m 561.00582,1029.8675 c -10.26261,-3.6379 -12.11567,-5.6102 -13.82337,-14.713 -1.08463,-5.7816 -8.177,-22.11105 -15.76082,-36.28768 -17.06931,-31.90812 -25.18613,-58.00004 -27.53037,-88.49777 l -1.80581,-23.493 17.38133,-13.37464 c 18.9982,-14.61877 33.61781,-31.24995 43.05731,-48.98172 l 6.08399,-11.42858 -1.67653,35.71429 c -1.90273,40.53299 1.92983,80.95356 8.9947,94.86374 2.63194,5.18209 8.93545,14.56483 14.00781,20.85055 15.16742,18.79558 19.50744,29.79884 20.84849,52.85714 1.0934,18.80017 0.48312,22.39227 -4.97552,29.28567 -5.26437,6.6481 -8.27822,7.8225 -19.58583,7.6316 -7.35023,-0.124 -18.69715,-2.116 -25.21538,-4.4266 z"
         style="fill:#a05a2c;stroke-width:2.85714293" />
      <path
         transform="scale(0.26458333)"
         inkscape:connector-curvature="0"
         id="path132"
         d="m 204.28571,1014.1535 c -14.10495,-3.2228 -48.13226,-27.86151 -55.76344,-40.37745 -7.42589,-12.17923 -7.28152,-27.8594 0.34577,-37.55594 3.306,-4.20289 15.04654,-12.19189 26.09011,-17.75334 19.64407,-9.8926 20.59049,-10.06914 43.67276,-8.14639 l 23.59356,1.96533 -2.8436,10.29866 c -3.4304,12.42389 -1.49944,33.0828 3.67496,39.31758 2.06696,2.49054 12.41503,8.8878 22.9957,14.21614 10.58067,5.32834 20.03556,10.97905 21.01087,12.55712 3.36915,5.45141 -4.15975,13.88209 -19.00252,21.27859 -16.02202,7.9841 -40.23383,9.5785 -63.77417,4.1997 z"
         style="fill:#a05a2c;stroke-width:2.85714293" />
      <path
         transform="scale(0.26458333)"
         inkscape:connector-curvature="0"
         id="path134"
         d="m 387.40044,634.94115 c -10.85833,-2.92951 -21.14405,-7.22848 -22.85715,-9.55327 -1.71309,-2.32479 -4.49428,-3.76133 -6.18041,-3.19231 -4.48255,1.51272 -13.06471,-9.03152 -11.14358,-13.69126 0.90353,-2.19154 7.34551,-8.19068 14.31549,-13.33141 19.71198,-14.53861 19.67793,-23.84369 -0.18226,-49.81088 l -10.28175,-13.44338 9.46024,-2.4514 c 5.20313,-1.34826 9.81621,-4.29977 10.25127,-6.5589 0.43507,-2.25913 -5.66558,-14.33243 -13.55701,-26.82955 -8.38339,-13.27622 -13.29093,-23.77917 -11.80513,-25.26497 1.4858,-1.48579 10.9142,-1.24407 22.68011,0.58147 36.83012,5.71439 42.18926,4.76969 77.91857,-13.73538 34.80105,-18.02429 61.80559,-27.5939 82.5526,-29.25419 9.18325,-0.73489 12.65304,-0.008 12.14286,2.54254 -0.86621,4.33101 0.83315,4.47341 7.94744,0.66595 4.43336,-2.37266 6.33689,-1.51974 10.38019,4.65112 4.68739,7.15386 4.69015,8.55213 0.0518,26.23679 -11.22226,42.78733 -51.11665,125.95501 -70.69425,147.37603 -24.69059,27.01544 -60.66956,35.94365 -100.99906,25.063 z"
         style="fill:#ffe6d5;stroke-width:2.85714293" />
      <path
         transform="scale(0.26458333)"
         inkscape:connector-curvature="0"
         id="path136"
         d="M 44.419466,716.43423 C 27.004665,686.71811 20.795185,655.17543 18.169594,583.09111 c -2.314267,-63.53708 2.964651,-88.71354 26.86058,-128.10472 28.986097,-47.78206 56.409746,-69.80102 108.474776,-87.09645 55.2996,-18.36992 122.25045,-28.26392 128.02554,-18.91963 3.11447,5.03931 -10.30546,22.11606 -51.51263,65.54938 -73.02033,76.96514 -105.85623,119.39 -122.36125,158.09407 -7.43669,17.43894 -8.855821,24.69502 -9.564187,48.90225 -0.695214,23.75773 -1.66242,28.86256 -5.890677,31.0905 -19.285332,10.1618 -35.058889,38.70849 -35.058889,63.44892 0,7.01248 -1.231517,12.74997 -2.736703,12.74997 -1.505188,0 -5.999197,-5.56703 -9.986688,-12.37117 z"
         style="fill:#28170b;stroke-width:2.85714293" />
      <path
         transform="scale(0.26458333)"
         inkscape:connector-curvature="0"
         id="path138"
         d="m 398.12524,637.40179 c -12.44674,-2.61266 -39.86949,-13.35049 -45.98238,-18.00517 -6.6208,-5.04143 -3.64205,-12.2004 10.71428,-25.75013 7.85715,-7.4157 14.28572,-15.93802 14.28572,-18.93849 0,-3.00047 -5.67394,-13.91672 -12.60875,-24.25834 -12.56334,-18.73523 -12.58434,-18.80906 -5.83148,-20.50392 12.54327,-3.14816 14.22604,-8.59243 6.33941,-20.50993 -11.49284,-17.36685 -19.68077,-34.8906 -17.75697,-38.00337 0.98279,-1.59019 5.85285,-2.2318 10.82234,-1.42579 4.9695,0.80601 18.18197,2.31266 29.36106,3.34812 l 20.3256,1.88265 41.10297,-18.71392 c 22.60663,-10.29266 48.08632,-20.73986 56.62153,-23.21601 C 522.98041,428.24164 540,427.39446 540,431.59111 c 0,1.56464 3.71639,2.04244 8.47843,1.09003 7.10483,-1.42096 9.00538,-0.53916 11.73098,5.44287 2.55866,5.61564 2.23516,10.71653 -1.51636,23.90998 -12.57764,44.23344 -45.3064,114.15441 -66.69544,142.48661 -19.45853,25.77504 -60.0277,39.98542 -93.87237,32.88119 z"
         style="fill:#28170b;stroke-width:2.85714293" />
    </g>
  </g>
</svg>
